<?xml version="1.0" encoding="UTF-8" standalone="no"?>
<!-- Created with Inkscape (http://www.inkscape.org/) -->

<svg
   width="255mm"
   height="255mm"
   viewBox="0 0 255 255"
   version="1.1"
   id="svg4479"
   xmlns="http://www.w3.org/2000/svg"
   xmlns:svg="http://www.w3.org/2000/svg">
  <defs
     id="defs4476" />
  <g
     id="layer1">
    <path
       style="fill:#b1b1b1;fill-opacity:1;stroke:#000000;stroke-width:2;stroke-linecap:butt;stroke-linejoin:miter;stroke-dasharray:none;stroke-opacity:1"
       d="m 19.449556,224.98407 c 0,-2.62832 5.7823,6.3355 3.679647,-46.75653 -0.124663,-3.14775 6.474291,2.05758 6.064853,-9.11981 -0.409438,-11.17739 1.685891,-5.44144 1.202305,-18.77075 -0.483586,-13.32932 -7.870251,2.70674 -8.217357,-6.89678 -0.347107,-9.60352 -3.167815,-78.142663 -3.167815,-78.142663 5.984757,-8.585202 5.34029,-11.331474 4.676457,-18.959833 -0.663832,-7.628358 -5.725737,-2.160131 -6.16128,-6.307526 -0.435542,-4.147395 -0.705127,-6.3877 -0.705127,-6.3877 L 17.90542,22.60354 32.656858,21.026549 31.112717,32.591151 42.80342,40.900309 47.572561,20.500885 60.319906,23.129204 60.101041,43.138728 c 4.491332,-1.89925 7.451681,-7.368856 10.014666,-6.994999 L 71.999498,23.392036 82.20066,22.60354 79.048128,34.151232 86.03588,50.599964 93.354588,22.866373 105.13274,24.706196 c 0,0 -0.31211,1.396294 -0.86036,4.02256 -0.54825,2.626265 -1.33264,6.482501 -2.2772,11.402385 -0.94455,4.919884 -5.076178,2.255088 -6.265081,9.135944 -1.188904,6.880856 7.916001,10.334873 6.634691,18.844054 -1.2813,8.509182 -9.921902,30.721856 -11.14366,40.526711 -1.221758,9.80487 -9.726832,5.03983 -10.737092,15.80772 -1.01026,10.7679 11.095707,9.39407 10.448894,20.79235 -0.646812,11.39827 -6.695327,50.70323 -6.826743,62.39925 -22.18473,1.9872 -43.870978,6.96529 -64.656638,17.3469 z"
       id="path5003" />
    <path
       style="fill:none;stroke:#007b10;stroke-width:3.5;stroke-linecap:butt;stroke-linejoin:miter;stroke-dasharray:none;stroke-opacity:1"
       d="m 7.359292,232.86903 c 0,0 76.855041,-57.39797 150.339828,1.05132"
       id="path4616" />
    <path
       style="fill:none;stroke:#007b10;stroke-width:3.5;stroke-linecap:butt;stroke-linejoin:miter;stroke-dasharray:none;stroke-opacity:1"
       d="m 101.43199,208.85519 c 0,0 76.85504,-57.39797 150.33983,1.05132"
       id="path4616-9" />
    <path
       style="fill:#7e93b1;fill-opacity:1;stroke:#2f1700;stroke-width:1.5;stroke-linecap:butt;stroke-linejoin:miter;stroke-dasharray:none;stroke-opacity:1"
       d="M 45.099044,110.17716 74.451777,107.888 C 72.842098,96.605164 70.457358,94.762064 70.325496,65.480327 c 0,0 -17.02246,-11.616508 -27.684053,3.768781 0.977646,5.335975 1.570134,9.712449 1.921423,13.488053 0.35129,3.775603 10.406959,9.977252 10.419812,12.909747 0.01285,2.932496 -10.017107,2.595838 -10.054771,5.402492 -0.03766,2.80665 -0.0286,5.72969 0.171137,9.12776 z"
       id="path5006" />
    <path
       style="fill:#7e93b1;fill-opacity:1;stroke:#2f1700;stroke-width:1.5;stroke-linecap:butt;stroke-linejoin:miter;stroke-dasharray:none;stroke-opacity:1"
       d="m 34.90142,187.55697 29.29564,2.93064 c 0.102055,-2.84744 0.05224,-5.12273 -0.0011,-7.38467 -0.05336,-2.26195 -1.839929,-21.37479 1.70729,-17.68261 1.936715,2.01586 -7.030514,-8.29569 -6.504715,-12.73951 0.525799,-4.44382 6.966132,2.54815 8.226505,-4.66304 0,0 -14.703374,-14.44016 -27.914496,-1.17958 0.01992,5.42476 -0.169807,9.83708 -0.490827,13.61538 -0.32102,3.77829 6.577748,15.13848 6.072508,18.02715 -0.50524,2.88868 -8.414488,-2.69417 -8.947226,0.0617 -0.532737,2.75588 -1.040043,5.63458 -1.443556,9.01452 z"
       id="path5006-3" />
    <g
       id="g5140"
       transform="rotate(49.87027,148.71411,173.57476)">
      <path
         style="fill:#b18273;fill-opacity:1;stroke:#000000;stroke-width:2;stroke-linecap:butt;stroke-linejoin:miter;stroke-dasharray:none;stroke-opacity:1"
         d="m 162.43009,88.311502 c 0,0 15.24424,-4.205309 23.1292,3.153984 7.88496,7.35929 15.24425,9.461944 19.97522,7.884956 4.73097,-1.576993 9.46195,-8.936283 18.9239,-8.410619 l 2.20788,31.623647 c -9.46195,-0.52566 -14.19293,6.83363 -18.9239,8.41063 -4.73097,1.57698 -12.09026,-0.52567 -19.97522,-7.88496 -7.88496,-7.3593 -21.61598,0.0638 -21.61598,0.0638 -0.50966,-16.84307 -2.34363,-24.781312 -3.7211,-34.841398 z"
         id="path5114" />
    </g>
    <text
       xml:space="preserve"
       style="font-style:normal;font-weight:normal;font-size:17.9087px;line-height:1.25;font-family:sans-serif;fill:#000000;fill-opacity:1;stroke:none;stroke-width:0.447718"
       x="240.19963"
       y="-109.76945"
       id="text5196"
       transform="matrix(0.48237257,0.86731554,-0.88059531,0.48975836,0,0)"><tspan
         id="tspan5194"
         style="stroke-width:0.447718"
         x="240.19963"
         y="-109.76945">Ohio</tspan></text>
    <path
       style="fill:none;stroke:#000000;stroke-width:3;stroke-linecap:butt;stroke-linejoin:miter;stroke-dasharray:none;stroke-opacity:1"
       d="m 144.94,188.50765 c 0,0 42.3804,-15.78732 78.14433,-58.99783"
       id="path5082" />
  </g>
</svg>
