<?xml version="1.0" encoding="UTF-8" standalone="no"?>
<!-- Created with Inkscape (http://www.inkscape.org/) -->

<svg
   width="255mm"
   height="255mm"
   viewBox="0 0 255 255"
   version="1.1"
   id="svg4479"
   inkscape:version="1.2.1 (9c6d41e410, 2022-07-14)"
   sodipodi:docname="1.svg"
   inkscape:export-filename="slide1.svg"
   inkscape:export-xdpi="100"
   inkscape:export-ydpi="100"
   xmlns:inkscape="http://www.inkscape.org/namespaces/inkscape"
   xmlns:sodipodi="http://sodipodi.sourceforge.net/DTD/sodipodi-0.dtd"
   xmlns="http://www.w3.org/2000/svg"
   xmlns:svg="http://www.w3.org/2000/svg">
  <sodipodi:namedview
     id="namedview4481"
     pagecolor="#ffffff"
     bordercolor="#999999"
     borderopacity="1"
     inkscape:showpageshadow="0"
     inkscape:pageopacity="0"
     inkscape:pagecheckerboard="0"
     inkscape:deskcolor="#d1d1d1"
     inkscape:document-units="mm"
     showgrid="false"
     inkscape:zoom="0.50333193"
     inkscape:cx="569.20688"
     inkscape:cy="494.70337"
     inkscape:window-width="1366"
     inkscape:window-height="705"
     inkscape:window-x="-8"
     inkscape:window-y="-8"
     inkscape:window-maximized="1"
     inkscape:current-layer="layer1" />
  <defs
     id="defs4476" />
  <g
     inkscape:label="Layer 1"
     inkscape:groupmode="layer"
     id="layer1">
    <path
       style="fill:#b1b1b1;fill-opacity:1;stroke:#000000;stroke-width:2;stroke-linecap:butt;stroke-linejoin:miter;stroke-dasharray:none;stroke-opacity:1"
       d="m 19.449556,224.98407 c 0,-2.62832 5.782301,-52.04071 3.679647,-105.13274 C 21.134592,69.487362 16.821239,33.642478 16.821239,33.642478 l 1.084181,-11.038938 14.751438,-1.576991 -1.544141,11.564602 12.123119,0.525663 4.336725,-12.615929 12.747345,2.628319 0.213551,9.199115 9.149834,0.788495 2.316207,-9.724778 10.201162,-0.788496 0.739215,10.250443 9.149834,1.314159 1.264879,-11.301769 11.778152,1.839823 c 0,0 -19.975224,89.362834 -21.026551,182.930974 -22.18473,1.9872 -43.870978,6.96529 -64.656638,17.3469 z"
       id="path5003"
       sodipodi:nodetypes="cscccccccccccccccccc" />
    <path
       style="fill:none;stroke:#007b10;stroke-width:3.5;stroke-linecap:butt;stroke-linejoin:miter;stroke-dasharray:none;stroke-opacity:1"
       d="m 7.359292,232.86903 c 0,0 76.855041,-57.39797 150.339828,1.05132"
       id="path4616"
       sodipodi:nodetypes="cc" />
    <path
       style="fill:none;stroke:#007b10;stroke-width:3.5;stroke-linecap:butt;stroke-linejoin:miter;stroke-dasharray:none;stroke-opacity:1"
       d="m 101.43199,208.85519 c 0,0 76.85504,-57.39797 150.33983,1.05132"
       id="path4616-9"
       sodipodi:nodetypes="cc" />
    <path
       style="fill:#7e93b1;fill-opacity:1;stroke:#2f1700;stroke-width:1.5;stroke-linecap:butt;stroke-linejoin:miter;stroke-dasharray:none;stroke-opacity:1"
       d="M 45.099044,110.17716 74.451777,107.888 C 72.842098,96.605164 70.457358,94.762064 70.325496,65.480327 c 0,0 -17.02246,-11.616508 -27.684053,3.768781 3.910583,21.343901 1.658638,27.335776 2.457601,40.928052 z"
       id="path5006"
       sodipodi:nodetypes="ccccc"
       inkscape:transform-center-x="-1.5462152"
       inkscape:transform-center-y="-2.6617141" />
    <path
       style="fill:#7e93b1;fill-opacity:1;stroke:#2f1700;stroke-width:1.5;stroke-linecap:butt;stroke-linejoin:miter;stroke-dasharray:none;stroke-opacity:1"
       d="m 34.90142,187.55697 29.29564,2.93064 c 0.408221,-11.38977 -1.613536,-13.62506 3.427957,-42.46983 0,0 -14.703374,-14.44016 -27.914496,-1.17958 0.07969,21.69904 -3.19505,27.19903 -4.809101,40.71877 z"
       id="path5006-3"
       sodipodi:nodetypes="ccccc"
       inkscape:transform-center-x="-0.7995017"
       inkscape:transform-center-y="-2.3507791" />
    <g
       id="g5140">
      <path
         style="fill:#b18273;fill-opacity:1;stroke:#000000;stroke-width:2;stroke-linecap:butt;stroke-linejoin:miter;stroke-dasharray:none;stroke-opacity:1"
         d="m 162.43009,88.311502 c 0,0 15.24424,-4.205309 23.1292,3.153984 7.88496,7.35929 15.24425,9.461944 19.97522,7.884956 4.73097,-1.576993 9.46195,-8.936283 18.9239,-8.410619 l 2.20788,31.623647 c -9.46195,-0.52566 -14.19293,6.83363 -18.9239,8.41063 -4.73097,1.57698 -12.09026,-0.52567 -19.97522,-7.88496 -7.88496,-7.3593 -21.61598,0.0638 -21.61598,0.0638 -0.50966,-16.84307 -2.34363,-24.781312 -3.7211,-34.841398 z"
         id="path5114"
         sodipodi:nodetypes="cssccsscc" />
    </g>
    <text
       xml:space="preserve"
       style="font-style:normal;font-weight:normal;font-size:17.9087px;line-height:1.25;font-family:sans-serif;fill:#000000;fill-opacity:1;stroke:none;stroke-width:0.447718"
       x="195.10457"
       y="76.26973"
       id="text5196"
       transform="matrix(0.97403724,0.19018676,-0.19309877,0.98895107,0,0)"><tspan
         sodipodi:role="line"
         id="tspan5194"
         style="stroke-width:0.447718"
         x="195.10457"
         y="76.26973">Ohio</tspan></text>
    <path
       style="fill:none;stroke:#000000;stroke-width:3;stroke-linecap:butt;stroke-linejoin:miter;stroke-dasharray:none;stroke-opacity:1"
       d="m 157.69911,186.08495 c 0,0 15.24425,-42.57876 5.25664,-97.773448"
       id="path5082" />
  </g>
</svg>
